<svg width="36" height="36" viewBox="0 0 36 36" fill="none" xmlns="http://www.w3.org/2000/svg">
<path fill-rule="evenodd" clip-rule="evenodd" d="M14.7602 3.84945C15.6374 3.02721 16.7976 2.57141 18.0008 2.57141C19.2041 2.57141 20.3644 3.02724 21.2415 3.84952M21.2415 3.84952L30.8878 12.8106C31.6893 13.562 32.3286 14.4674 32.7657 15.4723C33.2029 16.4772 33.4286 17.56 33.4286 18.6547V28.7594C33.4286 30.0033 32.9277 31.1927 32.0417 32.067C31.1564 32.9407 29.9591 33.4286 28.7143 33.4286H7.2857C6.04085 33.4286 4.8436 32.9407 3.95823 32.067C3.07229 31.1927 2.57141 30.0033 2.57141 28.7594V18.6547C2.57141 17.56 2.7971 16.4772 3.23427 15.4723C3.67141 14.4674 4.31061 13.5621 5.11206 12.8107L14.7602 3.84945M18.0008 5.14284C17.4463 5.14284 16.916 5.35314 16.5188 5.72556L6.87076 14.6866C6.32367 15.1996 5.88888 15.8162 5.59223 16.4981C5.29557 17.18 5.14284 17.9137 5.14284 18.6547V28.7594C5.14284 29.3102 5.36441 29.842 5.76443 30.2367C6.16502 30.632 6.71192 30.8571 7.2857 30.8571H28.7143C29.288 30.8571 29.8349 30.632 30.2355 30.2367C30.6356 29.842 30.8571 29.3102 30.8571 28.7594V18.6547C30.8571 17.9137 30.7044 17.18 30.4077 16.4981C30.1111 15.8161 29.6764 15.1996 29.1292 14.6866L19.483 5.72564C19.0858 5.35323 18.5554 5.14284 18.0008 5.14284Z" fill="white"/>
</svg>
