<svg width="36" height="36" viewBox="0 0 36 36" fill="none" xmlns="http://www.w3.org/2000/svg">
<path fill-rule="evenodd" clip-rule="evenodd" d="M18 5.01436C16.0564 5.01436 14.1923 5.78647 12.8179 7.16084C11.4436 8.53521 10.6715 10.3992 10.6715 12.3429C10.6715 15.0679 12.5273 17.9684 14.622 20.325C15.6422 21.4727 16.6661 22.4329 17.4361 23.1067C17.6451 23.2896 17.8349 23.4509 18 23.5885C18.1651 23.4509 18.3549 23.2896 18.5639 23.1067C19.3339 22.4329 20.3578 21.4727 21.378 20.325C23.4727 17.9684 25.3285 15.0679 25.3285 12.3429C25.3285 10.3992 24.5564 8.53521 23.1821 7.16084C21.8077 5.78647 19.9437 5.01436 18 5.01436ZM18 25.0714C17.3057 25.9971 17.3055 25.9969 17.3052 25.9967L17.3045 25.9962L17.3024 25.9947L17.2961 25.9899L17.2743 25.9733C17.2558 25.9592 17.2295 25.9391 17.1959 25.913C17.1287 25.8609 17.0322 25.7852 16.9106 25.6875C16.6675 25.4922 16.3235 25.2083 15.9121 24.8484C15.0911 24.13 13.9935 23.1014 12.8923 21.8625C10.7442 19.4459 8.35718 15.9821 8.35718 12.3429C8.35718 9.78546 9.37312 7.33277 11.1815 5.52439C12.9899 3.71601 15.4426 2.70007 18 2.70007C20.5574 2.70007 23.0101 3.71601 24.8185 5.52439C26.6269 7.33277 27.6428 9.78546 27.6428 12.3429C27.6428 15.9821 25.2558 19.4459 23.1077 21.8625C22.0065 23.1014 20.9089 24.13 20.0879 24.8484C19.6765 25.2083 19.3325 25.4922 19.0894 25.6875C18.9679 25.7852 18.8714 25.8609 18.8041 25.913C18.7705 25.9391 18.7442 25.9592 18.7257 25.9733L18.704 25.9899L18.6976 25.9947L18.6955 25.9962L18.6948 25.9967C18.6945 25.9969 18.6943 25.9971 18 25.0714ZM18 25.0714L18.6943 25.9971C18.2829 26.3057 17.7171 26.3057 17.3057 25.9971L18 25.0714Z" fill="white"/>
<path fill-rule="evenodd" clip-rule="evenodd" d="M18.0001 10.6715C17.077 10.6715 16.3287 11.4198 16.3287 12.3429C16.3287 13.266 17.077 14.0143 18.0001 14.0143C18.9232 14.0143 19.6715 13.266 19.6715 12.3429C19.6715 11.4198 18.9232 10.6715 18.0001 10.6715ZM14.0144 12.3429C14.0144 10.1416 15.7989 8.35718 18.0001 8.35718C20.2014 8.35718 21.9858 10.1416 21.9858 12.3429C21.9858 14.5441 20.2014 16.3286 18.0001 16.3286C15.7989 16.3286 14.0144 14.5441 14.0144 12.3429Z" fill="white"/>
<path fill-rule="evenodd" clip-rule="evenodd" d="M8.03714 19.6731C8.0581 19.672 8.07909 19.6714 8.10009 19.6714H13.5239C14.1629 19.6714 14.681 20.1895 14.681 20.8285C14.681 21.4676 14.1629 21.9857 13.5239 21.9857H8.14428C8.09878 21.9915 8.05555 22.0094 8.01916 22.0377C7.9778 22.0699 7.94726 22.1139 7.93162 22.164L7.925 22.1844L5.09644 30.6701C5.07686 30.7289 5.05266 30.7857 5.02416 30.8403C5.03813 30.9102 5.06237 30.9337 5.0643 30.9355L5.0644 30.9356L5.06449 30.9357C5.06713 30.9384 5.11277 30.9856 5.27153 30.9856H30.7286C30.8873 30.9856 30.933 30.9384 30.9356 30.9357L30.9357 30.9356L30.9358 30.9355C30.9377 30.9337 30.962 30.9102 30.9759 30.8403C30.9474 30.7857 30.9232 30.7289 30.9037 30.6701L28.0751 22.1844L28.0685 22.164C28.0528 22.1139 28.0223 22.0699 27.9809 22.0377C27.9446 22.0094 27.9013 21.9915 27.8558 21.9857H22.4762C21.8372 21.9857 21.3191 21.4676 21.3191 20.8285C21.3191 20.1895 21.8372 19.6714 22.4762 19.6714H27.9C27.921 19.6714 27.942 19.672 27.963 19.6731C28.4862 19.7016 28.9882 19.8893 29.4018 20.211C29.8121 20.5301 30.116 20.9661 30.2735 21.4613L33.0377 29.7539C33.3024 30.16 33.3007 30.5618 33.3001 30.7102C33.3 30.7168 33.3 30.7229 33.3 30.7285C33.3 31.4157 33.0659 32.0784 32.5722 32.5721C32.0784 33.0658 31.4158 33.2999 30.7286 33.2999H5.27153C4.58429 33.2999 3.92167 33.0658 3.42795 32.5721C2.93424 32.0784 2.7001 31.4157 2.7001 30.7285C2.7001 30.7229 2.70008 30.7168 2.70005 30.7102C2.69942 30.5618 2.69772 30.16 2.96238 29.7539L5.72657 21.4613C5.88409 20.9661 6.18798 20.5301 6.59833 20.211C7.01193 19.8893 7.51394 19.7016 8.03714 19.6731Z" fill="white"/>
</svg>
