<svg width="36" height="36" viewBox="0 0 36 36" fill="none" xmlns="http://www.w3.org/2000/svg">
<path d="M14.3625 16.7142C17.9586 16.7142 20.8747 19.6185 20.8966 23.2094C20.897 23.2227 20.8991 23.2361 20.8991 23.2495C20.8991 26.8589 17.9718 29.7845 14.3625 29.7848H14.345C13.968 29.7795 13.593 29.7371 13.2237 29.6668L10.9009 31.9921C10.3981 32.4995 9.71423 32.7848 8.99997 32.7844V32.7857H7.51085C6.02838 32.7852 4.82643 31.5825 4.82642 30.1V28.6159L4.84023 28.3522C4.90168 27.7403 5.17057 27.1641 5.60739 26.7237L5.61115 26.7212L7.94277 24.3833C7.87303 24.0159 7.83254 23.6432 7.82725 23.2684V23.2495C7.82748 19.6403 10.7533 16.7145 14.3625 16.7142ZM21.9425 3.21423C22.1702 3.21425 22.3966 3.22923 22.6205 3.25567C22.634 3.25692 22.6473 3.25902 22.6607 3.26069C23.9302 3.41965 25.1189 3.99508 26.0332 4.90927L29.5902 8.46633C30.5062 9.38233 31.0824 10.5741 31.2401 11.8463C31.2413 11.8568 31.2428 11.8672 31.2438 11.8777C31.2704 12.1021 31.2852 12.3288 31.2853 12.557V27.7495C31.2853 30.5307 29.0303 32.7857 26.2491 32.7857H20.9995C20.2896 32.7855 19.7138 32.2099 19.7138 31.4999C19.7138 30.79 20.2896 30.2144 20.9995 30.2142H26.2491C27.6101 30.2142 28.7138 29.1105 28.7138 27.7495V13.2852H24.75C22.7972 13.2852 21.2143 11.7023 21.2143 9.74953V5.78566H11.25C9.88912 5.78583 8.78526 6.88948 8.78526 8.25037V15.0004C8.78503 15.7103 8.20949 16.2861 7.49955 16.2861C6.78975 16.2859 6.21406 15.7101 6.21383 15.0004V8.25037C6.21383 5.46932 8.46896 3.2144 11.25 3.21423H21.9425ZM14.1579 19.2907C12.0694 19.3968 10.4081 21.1193 10.3987 23.232L10.4137 23.5245C10.4398 23.8161 10.4989 24.1043 10.5895 24.3833C10.5918 24.3903 10.5924 24.3977 10.5946 24.4047C10.5967 24.4118 10.5988 24.4189 10.6008 24.426C10.6099 24.4574 10.6181 24.4887 10.6247 24.5202C10.6376 24.5832 10.6451 24.647 10.6485 24.711C10.6497 24.7316 10.6509 24.7521 10.6511 24.7725C10.6512 24.7931 10.6494 24.8135 10.6485 24.8341C10.6459 24.8977 10.6404 24.9606 10.6285 25.0224C10.5939 25.2036 10.5177 25.3766 10.405 25.5322C10.3928 25.5489 10.3815 25.5662 10.3685 25.5824C10.36 25.5931 10.3511 25.6033 10.3422 25.6138C10.3228 25.6366 10.3029 25.6589 10.2819 25.6803C10.2794 25.6829 10.2782 25.6866 10.2756 25.6891L7.43049 28.538C7.40973 28.5605 7.39799 28.5902 7.39784 28.6209V30.1C7.39785 30.1624 7.44854 30.2138 7.51085 30.2142H9.00122C9.02908 30.2142 9.05569 30.2026 9.0753 30.1828L9.07907 30.1791L11.9179 27.3364C11.9202 27.3341 11.9219 27.3312 11.9242 27.3289C11.9784 27.2756 12.0378 27.2284 12.1 27.1858C12.1097 27.1791 12.1191 27.1721 12.1289 27.1657C12.1437 27.1561 12.1589 27.147 12.1741 27.1381C12.1953 27.1255 12.2164 27.1129 12.2381 27.1016C12.2556 27.0926 12.2742 27.086 12.2921 27.0778C12.3492 27.0516 12.407 27.0274 12.4666 27.01C12.493 27.0023 12.5201 26.9972 12.547 26.9912C12.56 26.9883 12.5728 26.9849 12.5859 26.9824C12.6566 26.9688 12.7289 26.9625 12.8019 26.961C12.8102 26.9609 12.8186 26.9598 12.827 26.9598H12.8446C12.91 26.9607 12.9757 26.9674 13.0417 26.9786C13.0555 26.9809 13.0693 26.9834 13.0831 26.9861C13.1012 26.9898 13.1191 26.9942 13.1371 26.9987C13.161 27.0046 13.185 27.0102 13.2087 27.0175C13.2143 27.0193 13.2206 27.0207 13.2262 27.0225C13.5973 27.1433 13.985 27.2061 14.3751 27.2121C16.5587 27.2053 18.3264 25.4347 18.3264 23.2495C18.3262 21.0603 16.5518 19.2857 14.3625 19.2857L14.1579 19.2907ZM14.2483 21.8897C14.5646 21.8894 14.8696 21.9987 15.1121 22.1974L15.2126 22.2878L15.303 22.3882C15.5014 22.6307 15.611 22.936 15.6106 23.252C15.6105 23.2988 15.6067 23.3447 15.6018 23.3902C15.5315 24.0759 14.9537 24.6108 14.2495 24.6106C13.4986 24.6103 12.8902 24.0017 12.8898 23.2508C12.8895 22.4997 13.4972 21.8907 14.2483 21.8897ZM23.7857 9.74953C23.7857 10.2821 24.2174 10.7138 24.75 10.7138H28.1287C28.0224 10.5622 27.9049 10.4171 27.7721 10.2844L24.2151 6.72735C24.0821 6.59441 23.9376 6.47596 23.7857 6.36951V9.74953Z" fill="white"/>
</svg>
