<svg width="36" height="36" viewBox="0 0 36 36" fill="none" xmlns="http://www.w3.org/2000/svg">
<path d="M28.0165 24.6001C30.6725 24.7422 32.7836 26.9365 32.7914 29.6262V30.5716C32.7876 31.7958 31.7957 32.7877 30.5716 32.7915L30.5678 31.5058V32.7915H17.4332C16.209 32.7877 15.2171 31.7958 15.2133 30.5716V29.6262L15.2208 29.3675C15.3627 26.7114 17.5573 24.6006 20.2469 24.5926H27.7578L28.0165 24.6001ZM20.0021 27.1778C18.7586 27.3075 17.7885 28.3567 17.7847 29.6337V30.2201H30.22V29.6337L30.2062 29.3813C30.0853 28.2208 29.1632 27.2989 28.0027 27.1778L27.7503 27.164H20.2545L20.0021 27.1778ZM11.3901 3.78893C16.3091 2.21187 21.6829 4.02556 24.6415 8.26003C25.0477 8.84204 24.9056 9.64388 24.3238 10.0505C23.7419 10.457 22.9401 10.3145 22.5333 9.73282C20.2208 6.42297 16.0211 5.00595 12.1761 6.23856C8.33111 7.47127 5.73728 11.0655 5.78014 15.1029C5.82331 19.1406 8.49382 22.6788 12.3644 23.8292C13.0447 24.0316 13.4315 24.7484 13.2295 25.4288C13.027 26.1091 12.3116 26.4961 11.6311 26.2939C6.67959 24.8222 3.26519 20.2959 3.20996 15.1305C3.15499 9.96539 6.47126 5.3661 11.3901 3.78893ZM23.9697 13.3376C26.7588 13.3274 29.0295 15.5798 29.041 18.3687L29.036 18.6185C28.9804 19.8682 28.461 21.0573 27.5758 21.9496C26.6314 22.9009 25.3466 23.4366 24.0061 23.44H24.0049C21.2167 23.4488 18.9483 21.1974 18.9374 18.4089V18.4076C18.9274 15.6182 21.1802 13.3482 23.9697 13.3376ZM23.9798 15.909C22.6102 15.9142 21.5038 17.0293 21.5088 18.3988C21.5142 19.7684 22.629 20.8749 23.9986 20.8698L24.0036 22.1229L23.9999 20.8698C24.6573 20.868 25.2883 20.6044 25.7514 20.1378C26.2141 19.6711 26.473 19.0385 26.4696 18.3812V18.38C26.4642 17.0107 25.349 15.9043 23.9798 15.909ZM16.0897 13.089C16.5915 12.5871 17.4055 12.5863 17.9078 13.0877C18.4102 13.5895 18.4108 14.4047 17.909 14.9071L15.4104 17.4082C15.1694 17.6493 14.8411 17.7847 14.5001 17.7848C14.1594 17.7847 13.8321 17.6491 13.5911 17.4082L12.0907 15.9077C11.5888 15.4057 11.5889 14.5917 12.0907 14.0897C12.5927 13.5877 13.4067 13.5878 13.9088 14.0897L14.4989 14.6798L16.0897 13.089Z" fill="white"/>
</svg>
